<mxfile host="app.diagrams.net" modified="2023-12-10T21:49:18.154Z" agent="Mozilla/5.0 (Windows NT 10.0; Win64; x64) AppleWebKit/537.36 (KHTML, like Gecko) Chrome/120.0.0.0 Safari/537.36 Edg/120.0.0.0" etag="n9cpDMP5XWeBOaaZ13VO" version="22.1.7" type="device">
  <diagram name="Page-1" id="0LjyaR8GP39VxtX0l3Zi">
    <mxGraphModel dx="826" dy="461" grid="1" gridSize="10" guides="1" tooltips="1" connect="1" arrows="1" fold="1" page="1" pageScale="1" pageWidth="827" pageHeight="1169" math="0" shadow="0">
      <root>
        <mxCell id="0" />
        <mxCell id="1" parent="0" />
        <mxCell id="ZX0OzG1rlly8gCr69xc4-1" value="&amp;nbsp;Start&lt;br&gt;Start Timer" style="rounded=1;whiteSpace=wrap;html=1;" vertex="1" parent="1">
          <mxGeometry x="120" y="90" width="120" height="60" as="geometry" />
        </mxCell>
        <mxCell id="ZX0OzG1rlly8gCr69xc4-3" value="" style="endArrow=classic;html=1;rounded=0;" edge="1" parent="1">
          <mxGeometry width="50" height="50" relative="1" as="geometry">
            <mxPoint x="180" y="150" as="sourcePoint" />
            <mxPoint x="180" y="200" as="targetPoint" />
          </mxGeometry>
        </mxCell>
        <mxCell id="ZX0OzG1rlly8gCr69xc4-5" value="Interrupt Button &lt;br&gt;Pressed?" style="shape=parallelogram;perimeter=parallelogramPerimeter;whiteSpace=wrap;html=1;fixedSize=1;" vertex="1" parent="1">
          <mxGeometry x="120" y="200" width="120" height="60" as="geometry" />
        </mxCell>
        <mxCell id="ZX0OzG1rlly8gCr69xc4-6" value="" style="endArrow=classic;html=1;rounded=0;entryX=0;entryY=0.5;entryDx=0;entryDy=0;" edge="1" parent="1" target="ZX0OzG1rlly8gCr69xc4-23">
          <mxGeometry width="50" height="50" relative="1" as="geometry">
            <mxPoint x="230" y="230" as="sourcePoint" />
            <mxPoint x="290" y="230" as="targetPoint" />
          </mxGeometry>
        </mxCell>
        <mxCell id="ZX0OzG1rlly8gCr69xc4-7" value="" style="endArrow=classic;html=1;rounded=0;" edge="1" parent="1">
          <mxGeometry width="50" height="50" relative="1" as="geometry">
            <mxPoint x="180" y="260" as="sourcePoint" />
            <mxPoint x="180" y="300" as="targetPoint" />
          </mxGeometry>
        </mxCell>
        <mxCell id="ZX0OzG1rlly8gCr69xc4-8" value="Yes" style="text;html=1;align=center;verticalAlign=middle;resizable=0;points=[];autosize=1;strokeColor=none;fillColor=none;" vertex="1" parent="1">
          <mxGeometry x="240" y="200" width="40" height="30" as="geometry" />
        </mxCell>
        <mxCell id="ZX0OzG1rlly8gCr69xc4-9" value="No&lt;br&gt;" style="text;html=1;align=center;verticalAlign=middle;resizable=0;points=[];autosize=1;strokeColor=none;fillColor=none;" vertex="1" parent="1">
          <mxGeometry x="180" y="268" width="40" height="30" as="geometry" />
        </mxCell>
        <mxCell id="ZX0OzG1rlly8gCr69xc4-11" value="Button&lt;br&gt;Pressed?" style="shape=parallelogram;perimeter=parallelogramPerimeter;whiteSpace=wrap;html=1;fixedSize=1;" vertex="1" parent="1">
          <mxGeometry x="450" y="200" width="120" height="60" as="geometry" />
        </mxCell>
        <mxCell id="ZX0OzG1rlly8gCr69xc4-12" value="" style="endArrow=classic;html=1;rounded=0;" edge="1" parent="1" target="ZX0OzG1rlly8gCr69xc4-11">
          <mxGeometry width="50" height="50" relative="1" as="geometry">
            <mxPoint x="410" y="230" as="sourcePoint" />
            <mxPoint x="460" y="180" as="targetPoint" />
          </mxGeometry>
        </mxCell>
        <mxCell id="ZX0OzG1rlly8gCr69xc4-13" value="" style="endArrow=classic;html=1;rounded=0;" edge="1" parent="1">
          <mxGeometry width="50" height="50" relative="1" as="geometry">
            <mxPoint x="510" y="200" as="sourcePoint" />
            <mxPoint x="510" y="150" as="targetPoint" />
          </mxGeometry>
        </mxCell>
        <mxCell id="ZX0OzG1rlly8gCr69xc4-14" value="Yes" style="text;html=1;align=center;verticalAlign=middle;resizable=0;points=[];autosize=1;strokeColor=none;fillColor=none;" vertex="1" parent="1">
          <mxGeometry x="520" y="168" width="40" height="30" as="geometry" />
        </mxCell>
        <mxCell id="ZX0OzG1rlly8gCr69xc4-15" value="" style="endArrow=classic;html=1;rounded=0;entryX=0.5;entryY=1;entryDx=0;entryDy=0;" edge="1" parent="1">
          <mxGeometry width="50" height="50" relative="1" as="geometry">
            <mxPoint x="510" y="260" as="sourcePoint" />
            <mxPoint x="354" y="260" as="targetPoint" />
            <Array as="points">
              <mxPoint x="510" y="280" />
              <mxPoint x="354" y="280" />
            </Array>
          </mxGeometry>
        </mxCell>
        <mxCell id="ZX0OzG1rlly8gCr69xc4-16" value="No" style="text;html=1;align=center;verticalAlign=middle;resizable=0;points=[];autosize=1;strokeColor=none;fillColor=none;" vertex="1" parent="1">
          <mxGeometry x="510" y="260" width="40" height="30" as="geometry" />
        </mxCell>
        <mxCell id="ZX0OzG1rlly8gCr69xc4-19" value="" style="endArrow=classic;html=1;rounded=0;entryX=1;entryY=0.5;entryDx=0;entryDy=0;" edge="1" parent="1" target="ZX0OzG1rlly8gCr69xc4-1">
          <mxGeometry width="50" height="50" relative="1" as="geometry">
            <mxPoint x="450" y="120" as="sourcePoint" />
            <mxPoint x="500" y="70" as="targetPoint" />
          </mxGeometry>
        </mxCell>
        <mxCell id="ZX0OzG1rlly8gCr69xc4-20" value="Timed Interval&lt;br&gt;Passed?" style="shape=parallelogram;perimeter=parallelogramPerimeter;whiteSpace=wrap;html=1;fixedSize=1;" vertex="1" parent="1">
          <mxGeometry x="120" y="300" width="120" height="60" as="geometry" />
        </mxCell>
        <mxCell id="ZX0OzG1rlly8gCr69xc4-21" value="" style="endArrow=classic;html=1;rounded=0;" edge="1" parent="1" target="ZX0OzG1rlly8gCr69xc4-25">
          <mxGeometry width="50" height="50" relative="1" as="geometry">
            <mxPoint x="230" y="328" as="sourcePoint" />
            <mxPoint x="260" y="340" as="targetPoint" />
          </mxGeometry>
        </mxCell>
        <mxCell id="ZX0OzG1rlly8gCr69xc4-23" value="Stereo Video &lt;br&gt;Recording" style="shape=process;whiteSpace=wrap;html=1;backgroundOutline=1;" vertex="1" parent="1">
          <mxGeometry x="294" y="200" width="120" height="60" as="geometry" />
        </mxCell>
        <mxCell id="ZX0OzG1rlly8gCr69xc4-24" value="Stop and Save&lt;br&gt;Video Recording" style="shape=process;whiteSpace=wrap;html=1;backgroundOutline=1;" vertex="1" parent="1">
          <mxGeometry x="440" y="90" width="120" height="60" as="geometry" />
        </mxCell>
        <mxCell id="ZX0OzG1rlly8gCr69xc4-25" value="Take Stereo&lt;br&gt;Photo" style="shape=process;whiteSpace=wrap;html=1;backgroundOutline=1;" vertex="1" parent="1">
          <mxGeometry x="294" y="299" width="120" height="60" as="geometry" />
        </mxCell>
        <mxCell id="ZX0OzG1rlly8gCr69xc4-26" value="Yes" style="text;html=1;align=center;verticalAlign=middle;resizable=0;points=[];autosize=1;strokeColor=none;fillColor=none;" vertex="1" parent="1">
          <mxGeometry x="240" y="298" width="40" height="30" as="geometry" />
        </mxCell>
        <mxCell id="ZX0OzG1rlly8gCr69xc4-29" value="" style="endArrow=classic;html=1;rounded=0;entryX=0;entryY=0.5;entryDx=0;entryDy=0;exitX=0;exitY=0.5;exitDx=0;exitDy=0;" edge="1" parent="1" source="ZX0OzG1rlly8gCr69xc4-20" target="ZX0OzG1rlly8gCr69xc4-1">
          <mxGeometry width="50" height="50" relative="1" as="geometry">
            <mxPoint x="130" y="328" as="sourcePoint" />
            <mxPoint x="110" y="328" as="targetPoint" />
            <Array as="points">
              <mxPoint x="100" y="330" />
              <mxPoint x="100" y="120" />
            </Array>
          </mxGeometry>
        </mxCell>
        <mxCell id="ZX0OzG1rlly8gCr69xc4-32" value="&amp;nbsp; &amp;nbsp;No" style="text;html=1;align=center;verticalAlign=middle;resizable=0;points=[];autosize=1;strokeColor=none;fillColor=none;" vertex="1" parent="1">
          <mxGeometry x="85" y="298" width="50" height="30" as="geometry" />
        </mxCell>
        <mxCell id="ZX0OzG1rlly8gCr69xc4-35" value="" style="endArrow=classic;html=1;rounded=0;exitX=1;exitY=0.5;exitDx=0;exitDy=0;" edge="1" parent="1" source="ZX0OzG1rlly8gCr69xc4-25">
          <mxGeometry width="50" height="50" relative="1" as="geometry">
            <mxPoint x="420" y="330" as="sourcePoint" />
            <mxPoint x="450" y="330" as="targetPoint" />
          </mxGeometry>
        </mxCell>
        <mxCell id="ZX0OzG1rlly8gCr69xc4-36" value="Reset Timer&lt;br&gt;Start" style="rounded=1;whiteSpace=wrap;html=1;" vertex="1" parent="1">
          <mxGeometry x="450" y="300" width="120" height="60" as="geometry" />
        </mxCell>
      </root>
    </mxGraphModel>
  </diagram>
</mxfile>
